/* XPM */
static char *result[] = {
/* columns rows colors chars-per-pixel */
"60 33 142 2 ",
"   c #3C1F23",
".  c #401D1F",
"X  c #431D1E",
"o  c #471D1E",
"O  c #461E1F",
"+  c #471E1F",
"@  c #4A1E1D",
"#  c #491E1E",
"$  c #4A1F1E",
"%  c #4B1F1E",
"&  c #4F1D1C",
"*  c #4D1F1D",
"=  c #4E1F1C",
"-  c #4E1E1D",
";  c #5D1E17",
":  c #5E1E17",
">  c #521E1B",
",  c #531E1B",
"<  c #551D18",
"1  c #541E1A",
"2  c #551E1A",
"3  c #541F1B",
"4  c #501E1C",
"5  c #511E1C",
"6  c #511F1C",
"7  c #581E19",
"8  c #591E19",
"9  c #591F19",
"0  c #591F1A",
"q  c #681E13",
"w  c #691E13",
"e  c #6A1E13",
"r  c #4C201E",
"t  c #4D231F",
"y  c #54201D",
"u  c #55221C",
"i  c #57231D",
"p  c #54241E",
"a  c #592019",
"s  c #59211B",
"d  c #5A211A",
"f  c #5F231A",
"g  c #5C251B",
"h  c #5E261C",
"j  c #5A2A1B",
"k  c #6F2113",
"l  c #692317",
"z  c #6D2214",
"x  c #632218",
"c  c #602718",
"v  c #652519",
"b  c #6D271D",
"n  c #672B1D",
"m  c #612C1D",
"M  c #68291B",
"N  c #732211",
"B  c #712616",
"V  c #792613",
"C  c #71271C",
"Z  c #752E1A",
"A  c #6A3417",
"S  c #783416",
"D  c #74321B",
"F  c #7A3019",
"G  c #411E21",
"H  c #401F21",
"J  c #421F21",
"K  c #431F21",
"L  c #461F20",
"P  c #4A2020",
"I  c #722F22",
"U  c #7B352B",
"Y  c #7C372F",
"T  c #643735",
"R  c #783E38",
"E  c #812C15",
"W  c #812D15",
"Q  c #812E15",
"!  c #833114",
"~  c #823217",
"^  c #893216",
"/  c #8B3316",
"(  c #8C3417",
")  c #8C3716",
"_  c #8F3816",
"`  c #833318",
"'  c #803418",
"]  c #853918",
"[  c #87381B",
"{  c #933816",
"}  c #963817",
"|  c #973C1A",
" . c #983C18",
".. c #983D1A",
"X. c #934515",
"o. c #954516",
"O. c #974417",
"+. c #994317",
"@. c #994718",
"#. c #A14219",
"$. c #A3441A",
"%. c #A64619",
"&. c #AD4B1C",
"*. c #B04E1A",
"=. c #A05317",
"-. c #A55417",
";. c #AC5419",
":. c #AA5918",
">. c #814038",
",. c #A9583D",
"<. c #C1641B",
"1. c #C4791B",
"2. c #C97A1B",
"3. c #884C45",
"4. c #90564C",
"5. c #965E57",
"6. c #92595B",
"7. c #9A6965",
"8. c #9B7071",
"9. c #A86F73",
"0. c #A07370",
"q. c #A77175",
"w. c #A87074",
"e. c #C58319",
"r. c #D19419",
"t. c #D19D18",
"y. c #D8AB18",
"u. c #DAC317",
"i. c #E6D316",
"p. c #E8D616",
"a. c #E8D916",
"s. c #B17E84",
"d. c #AA8180",
"f. c #A98787",
"g. c #B28F8F",
"h. c #B78C91",
"j. c #B58F92",
"k. c #B79193",
"l. c #B89296",
"z. c #BA9D9E",
"x. c #BC9DA0",
"c. c None",
/* pixels */
"c.c.c.c.c.c.c.c.c.c.c.c.c.c.c.c.c.c.c.c.c.c.c.c.c.c.c.c.c.c.c.c.c.c.c.c.c.c.c.c.c.c.c.c.c.c.c.c.c.c.c.c.c.c.c.c.c.c.c.c.",
"c.c.c.c.c.c.c.c.c.c.c.c.c.c.c.c.c.c.c.c.c.c.c.c.c.c.c.c.c.c.c.c.c.c.c.c.c.c.c.c.c.c.c.c.c.c.c.c.c.c.c.c.c.c.c.c.c.c.c.c.",
"c.c.c.c.c.c.c.c.c.c.c.c.c.c.c.c.c.c.c.c.c.c.c.c.c.c.c.c.c.c.c.c.c.c.c.c.c.c.c.c.c.c.c.c.c.c.c.c.c.c.c.c.c.c.c.c.c.c.c.c.",
"c.c.c.c.c.c.c.c.c.c.c.c.c.c.c.c.c.c.c.c.c.c.c.c.c.c.c.c.c.c.c.c.c.c.c.c.c.c.c.c.c.c.c.c.c.c.c.c.c.c.c.c.c.c.c.c.c.c.c.c.",
"c.c.c.c.c.c.c.c.c.c.c.c.c.c.c.c.c.c.c.c.c.c.c.c.c.c.c.c.c.c.c.c.c.c.c.c.c.c.c.c.c.c.c.c.c.c.c.c.c.c.c.c.c.c.c.c.c.c.c.c.",
"c.c.c.c.c.c.c.c.c.c.c.c.c.c.c.c.c.c.c.c.c.c.c.c.c.c.c.c.c.c.c.c.c.c.c.c.c.c.c.c.c.c.c.c.c.c.c.c.c.c.c.c.c.c.c.c.c.c.c.c.",
"c.c.c.c.c.c.c.c.c.c.c.c.c.c.c.c.c.c.c.c.c.c.c.c.c.c.c.c.c.c.c.c.c.c.c.c.c.c.c.c.c.c.c.c.c.c.c.c.c.c.c.c.c.c.c.c.c.c.c.c.",
"c.c.c.c.c.c.c.c.c.c.c.c.c.c.c.c.c.c.c.c.c.c.c.c.c.c.c.c.c.c.c.c.c.c.c.c.c.c.c.c.c.c.c.c.c.c.c.c.c.c.c.c.c.c.c.c.c.c.c.c.",
"c.c.c.c.c.c.c.c.c.c.c.c.c.c.c.c.c.c.c.c.c.c.c.c.c.c.c.c.c.c.c.c.c.c.c.c.c.c.c.c.c.c.c.c.c.c.c.c.c.c.c.c.c.c.c.c.c.c.c.c.",
"c.c.c.c.c.c.c.c.c.c.c.c.c.c.c.c.c.c.c.c.c.c.c.c.c.c.c.c.c.c.c.c.c.c.c.c.c.c.c.c.c.c.c.c.c.c.c.c.c.c.c.c.c.c.c.c.c.c.c.c.",
"c.c.c.c.c.c.c.c.c.c.c.c.c.c.c.c.c.c.c.c.c.c.c.c.c.c.c.c.c.c.c.c.c.c.c.c.c.c.c.c.c.c.c.c.c.c.c.c.c.c.c.c.c.c.c.c.c.c.c.c.",
"c.c.c.c.c.c.c.c.c.c.c.c.c.c.c.c.c.c.c.c.c.c.c.c.c.c.c.c.c.c.c.c.c.c.c.c.c.c.c.c.c.c.c.c.c.c.c.c.c.c.c.c.c.c.c.c.c.c.c.c.",
"c.c.c.c.c.c.c.c.c.c.c.c.c.c.c.c.c.c.c.c.c.c.c.c.c.c.c.c.c.c.c.c.c.c.c.c.c.c.c.c.c.c.c.c.c.c.c.c.c.c.c.c.c.c.c.c.c.c.c.c.",
"c.c.c.c.c.c.c.c.c.c.c.c.c.c.c.c.c.c.c.c.c.c.c.c.c.c.c.c.c.c.c.c.c.c.c.c.c.c.c.c.c.c.c.c.c.c.c.c.c.c.c.c.c.c.c.c.c.c.c.c.",
"c.c.c.c.c.c.c.c.c.c.c.c.c.c.c.c.c.c.c.c.c.c.c.c.c.c.c.c.c.c.c.c.c.d c.c.c.c.c.c.c.c.c.c.c.c.c.c.c.c.c.c.c.c.c.c.c.c.c.c.",
"c.c.c.c.c.c.c.c.c.c.c.c.c.c.c.c.c.c.c.c.c.c.c.} c.c.c.c.7 c.c.c.) _ c.c.c.c.c.c.c.c.c.c.c.c.c.c.c.c.c.c.c.c.c.c.c.c.c.c.",
"c.c.c.c.c.c.c.c.c.c.c.c.c.c.c.c.c.c.c.c.c.c.c.2.1.u c.K c.c.c.c.t.y.c.c.c.c.c.c.c.c.c.c.c.c.c.c.c.c.c.c.c.c.c.c.c.c.c.c.",
"c.c.c.c.c.c.c.c.c.c.c.c.c.c.c.c.c.c.c.c.c.c.c.i.u.t c.G c.c.c.c.p.a.c.c.c.c.c.c.c.c.c.c.c.c.c.c.c.c.c.c.c.c.c.c.c.c.c.c.",
"c.c.c.c.c.c.c.c.c.c.c.c.c.c.c.c.c.c.c.c.c.c.c.c.c.o x n 0 { ;.c.c.c.c.c.c.c.c.c.c.c.c.c.c.c.c.c.c.c.c.c.c.c.c.c.c.c.c.c.",
"c.c.c.c.c.c.c.c.c.c.c.c.c.c.c.c.c.c.c.c.c.c.c.c.c.c.v ` F *.r.=.+.c.c.c.c.c.c.c.c.c.c.c.c.c.c.c.c.c.c.c.c.c.c.c.c.c.c.c.",
"c.c.c.c.c.c.c.c.c.c.c.c.c.c.c.c.c.c.c.c.c.c.c.c.c.-.D c S %.<.O.e.o.c.c.c.c.c.c.c.c.c.c.c.c.c.c.c.c.c.c.c.c.c.c.c.c.c.c.",
"c.c.c.c.c.c.c.c.c.c.c.c.c.c.c.c.c.c.c.c.c.c.c.c.c.@.Z j A ( &.h m ' :.c.c.c.c.c.c.c.c.c.c.c.c.c.c.c.c.c.c.c.c.c.c.c.c.c.",
"c.c.c.c.c.c.c.c.c.c.c.c.c.c.c.c.c.c.c.c.c.c.c.c.c.r 4 : B $.[ 9 & g ] E c.c.c.c.c.c.c.c.c.c.c.c.c.c.c.c.c.c.c.c.c.c.c.c.",
"c.c.c.c.c.c.c.c.c.c.c.c.c.c.c.c.c.c.c.c.c.c.c.c.c.# H > s i * 1 ; c.c. .c.c.c.c.c.c.c.c.c.c.c.c.c.c.c.c.c.c.c.c.c.c.c.c.",
"c.c.c.c.c.c.c.c.c.c.c.c.c.c.c.c.c.c.c.c.c.c.c.c.c.z 3 c.c.- 5 2 8 c.c.#.c.c.c.c.c.c.c.c.c.c.c.c.c.c.c.c.c.c.c.c.c.c.c.c.",
"c.c.c.c.c.c.c.c.c.c.c.c.c.c.c.c.c.c.c.c.c.c.c.c.c.X.k c.c.c.$ J * O c.V c.c.c.c.c.c.c.c.c.c.c.c.c.c.c.c.c.c.c.c.c.c.c.c.",
"c.c.c.c.c.c.c.c.c.c.c.c.c.c.c.c.c.c.c.c.c.c.c.c.Q ! c.c.c.% % L + p ~ N / l c.c.c.c.c.c.c.c.c.c.c.c.c.c.c.c.c.c.c.c.c.c.",
"c.c.c.c.c.c.c.c.c.c.c.c.c.c.c.c.c.c.c.c.c.c.e : q c.c., H   @ < y I ,.5.c.c.c.c.c.c.c.c.c.c.c.c.c.c.c.c.c.c.c.c.c.c.c.c.",
"c.c.c.c.c.c.c.c.c.c.c.c.c.c.c.c.c.c.c.c.c.c.c.6 w c.W = . P c.c.9.q.l.z.c.c.c.c.c.c.c.c.c.c.c.c.c.c.c.c.c.c.c.c.c.c.c.c.",
"c.c.c.c.c.c.c.c.c.c.c.c.c.c.c.c.c.c.c.c.c.c.c.c.c.c.| Y 6.w.s.h.j.d.f.4...c.c.c.c.c.c.c.c.c.c.c.c.c.c.c.c.c.c.c.c.c.c.c.",
"c.c.c.c.c.c.c.c.c.c.c.c.c.c.c.c.c.c.c.c.c.c.c.c.c.c.b 8.k.x.g.0.7.U c.a ^ c.c.c.c.c.c.c.c.c.c.c.c.c.c.c.c.c.c.c.c.c.c.c.",
"c.c.c.c.c.c.c.c.c.c.c.c.c.c.c.c.c.c.c.c.c.c.c.c.c.c.c.T R 3.>.C c.c.c.J f c.c.c.c.c.c.c.c.c.c.c.c.c.c.c.c.c.c.c.c.c.c.c.",
"c.c.c.c.c.c.c.c.c.c.c.c.c.c.c.c.c.c.c.c.c.c.c.c.c.c.3 X c.c.c.c.c.c.c.c.M c.c.c.c.c.c.c.c.c.c.c.c.c.c.c.c.c.c.c.c.c.c.c."
};
