/* XPM */
static char *result[] = {
/* columns rows colors chars-per-pixel */
"60 33 144 2 ",
"   c #3E1F22",
".  c #411D1F",
"X  c #461E1F",
"o  c #471E1F",
"O  c #461F1F",
"+  c #4F1E1B",
"@  c #4B1E1D",
"#  c #481E1E",
"$  c #4B1F1E",
"%  c #4F1E1C",
"&  c #4F1F1C",
"*  c #4E1F1D",
"=  c #4C1F1E",
"-  c #5C1E17",
";  c #511E1B",
":  c #511F1B",
">  c #551D18",
",  c #541E1A",
"<  c #551F1A",
"1  c #541F1B",
"2  c #561E1A",
"3  c #501F1C",
"4  c #511F1C",
"5  c #581E19",
"6  c #5B1E18",
"7  c #5A1F18",
"8  c #5C1E18",
"9  c #5C1F18",
"0  c #631E15",
"q  c #611E16",
"w  c #611F17",
"e  c #641D14",
"r  c #641E15",
"t  c #641F15",
"y  c #671E14",
"u  c #691D13",
"i  c #631F18",
"p  c #4A211F",
"a  c #57251A",
"s  c #53211C",
"d  c #51221D",
"f  c #53211E",
"g  c #54221D",
"h  c #51241F",
"j  c #5A201B",
"k  c #59221B",
"l  c #5F231A",
"z  c #5C2A1E",
"x  c #672116",
"c  c #6B2417",
"v  c #652519",
"b  c #662519",
"n  c #65271A",
"m  c #602A18",
"M  c #652A18",
"N  c #68291B",
"B  c #682A1C",
"V  c #712013",
"C  c #712113",
"Z  c #732716",
"A  c #782714",
"S  c #702C17",
"D  c #792816",
"F  c #7D2B14",
"G  c #762F19",
"H  c #753715",
"J  c #783019",
"K  c #7E3318",
"L  c #7E331B",
"P  c #7D371C",
"I  c #411F21",
"U  c #431F20",
"Y  c #441F20",
"T  c #672922",
"R  c #713023",
"E  c #7F3E35",
"W  c #822D15",
"Q  c #832E16",
"!  c #803117",
"~  c #873014",
"^  c #823414",
"/  c #883116",
"(  c #8A3715",
")  c #8F3717",
"_  c #82341A",
"`  c #813818",
"'  c #903517",
"]  c #913718",
"[  c #963B18",
"{  c #973C18",
"}  c #983D19",
"|  c #9A3D18",
" . c #9B3D18",
".. c #944416",
"X. c #9A4217",
"o. c #9A4617",
"O. c #9B4917",
"+. c #964818",
"@. c #A04118",
"#. c #A24219",
"$. c #AC4A1B",
"%. c #B24F1B",
"&. c #B64F1C",
"*. c #A65617",
"=. c #A55817",
"-. c #AD5619",
";. c #AE5B18",
":. c #AB6517",
">. c #BE7919",
",. c #9A462D",
"<. c #85473E",
"1. c #C6691C",
"2. c #884C44",
"3. c #925B55",
"4. c #94605A",
"5. c #A0604D",
"6. c #9F6767",
"7. c #9D6B67",
"8. c #9B6D67",
"9. c #9F726F",
"0. c #A76E72",
"q. c #A86D72",
"w. c #AC7479",
"e. c #AF787E",
"r. c #C18419",
"t. c #CF8F19",
"y. c #D79C19",
"u. c #DBB817",
"i. c #DEBE17",
"p. c #DDC817",
"a. c #E8D616",
"s. c #E9DA16",
"d. c #E9DB16",
"f. c #AE7D81",
"g. c #AD8787",
"h. c #B28287",
"j. c #B48D90",
"k. c #B59193",
"l. c #B89093",
"z. c #B99397",
"x. c #B89A9B",
"c. c #BC9D9F",
"v. c #BD9CA0",
"b. c None",
/* pixels */
"b.b.b.b.b.b.b.b.b.b.b.b.b.b.b.b.b.b.b.b.b.b.b.b.b.b.b.b.b.b.b.b.b.b.b.b.b.b.b.b.b.b.b.b.b.b.b.b.b.b.b.b.b.b.b.b.b.b.b.b.",
"b.b.b.b.b.b.b.b.b.b.b.b.b.b.b.b.b.b.b.b.b.b.b.b.b.b.b.b.b.b.b.b.b.b.b.b.b.b.b.b.b.b.b.b.b.b.b.b.b.b.b.b.b.b.b.b.b.b.b.b.",
"b.b.b.b.b.b.b.b.b.b.b.b.b.b.b.b.b.b.b.b.b.b.b.b.b.b.b.b.b.b.b.b.b.b.b.b.b.b.b.b.b.b.b.b.b.b.b.b.b.b.b.b.b.b.b.b.b.b.b.b.",
"b.b.b.b.b.b.b.b.b.b.b.b.b.b.b.b.b.b.b.b.b.b.b.b.b.b.b.b.b.b.b.b.b.b.b.b.b.b.b.b.b.b.b.b.b.b.b.b.b.b.b.b.b.b.b.b.b.b.b.b.",
"b.b.b.b.b.b.b.b.b.b.b.b.b.b.b.b.b.b.b.b.b.b.b.b.b.b.b.b.b.b.b.b.b.b.b.b.b.b.b.b.b.b.b.b.b.b.b.b.b.b.b.b.b.b.b.b.b.b.b.b.",
"b.b.b.b.b.b.b.b.b.b.b.b.b.b.b.b.b.b.b.b.b.b.b.b.b.b.b.b.b.b.b.b.b.b.b.b.b.b.b.b.b.b.b.b.b.b.b.b.b.b.b.b.b.b.b.b.b.b.b.b.",
"b.b.b.b.b.b.b.b.b.b.b.b.b.b.b.b.b.b.b.b.b.b.b.b.b.b.b.b.b.b.b.b.b.b.b.b.b.b.b.b.b.b.b.b.b.b.b.b.b.b.b.b.b.b.b.b.b.b.b.b.",
"b.b.b.b.b.b.b.b.b.b.b.b.b.b.b.b.b.b.b.b.b.b.b.b.b.b.b.b.b.b.b.b.b.b.b.b.b.b.b.b.b.b.b.b.b.b.b.b.b.b.b.b.b.b.b.b.b.b.b.b.",
"b.b.b.b.b.b.b.b.b.b.b.b.b.b.b.b.b.b.b.b.b.b.b.b.b.b.b.b.b.b.b.b.b.b.b.b.b.b.b.b.b.b.b.b.b.b.b.b.b.b.b.b.b.b.b.b.b.b.b.b.",
"b.b.b.b.b.b.b.b.b.b.b.b.b.b.b.b.b.b.b.b.b.b.b.b.b.b.b.b.b.b.b.b.b.b.b.b.b.b.b.b.b.b.b.b.b.b.b.b.b.b.b.b.b.b.b.b.b.b.b.b.",
"b.b.b.b.b.b.b.b.b.b.b.b.b.b.b.b.b.b.b.b.b.b.b.b.b.b.b.b.b.b.b.b.b.b.b.b.b.b.b.b.b.b.b.b.b.b.b.b.b.b.b.b.b.b.b.b.b.b.b.b.",
"b.b.b.b.b.b.b.b.b.b.b.b.b.b.b.b.b.b.b.b.b.b.b.b.b.b.b.b.b.b.b.b.b.b.b.b.b.b.b.b.b.b.b.b.b.b.b.b.b.b.b.b.b.b.b.b.b.b.b.b.",
"b.b.b.b.b.b.b.b.b.b.b.b.b.b.b.b.b.b.b.b.b.b.b.b.b.b.b.b.b.b.b.b.b.b.b.b.b.b.b.b.b.b.b.b.b.b.b.b.b.b.b.b.b.b.b.b.b.b.b.b.",
"b.b.b.b.b.b.b.b.b.b.b.b.b.b.b.b.b.b.b.b.b.b.b.b.b.b.b.b.b.b.b.b.b.b.b.b.b.b.b.b.b.b.b.b.b.b.b.b.b.b.b.b.b.b.b.b.b.b.b.b.",
"b.b.b.b.b.b.b.b.b.b.b.b.b.b.b.b.b.b.b.b.b.b.b.9 b.b.b.b.b.b.b.b.b.b.b.b.b.b.b.b.b.b.b.b.b.b.b.b.b.b.b.b.b.b.b.b.b.b.b.b.",
"b.b.b.b.b.b.b.b.b.b.b.b.b.b.b.b.b.b.b.b.b.b.b.] ' b.b.b., b.b.b.O.+.b.b.b.b.b.b.b.b.b.b.b.b.b.b.b.b.b.b.b.b.b.b.b.b.b.b.",
"b.b.b.b.b.b.b.b.b.b.b.b.b.b.b.b.b.b.b.b.b.b.b.t.r.d b.Y b.b.b.b.u.i.b.b.b.b.b.b.b.b.b.b.b.b.b.b.b.b.b.b.b.b.b.b.b.b.b.b.",
"b.b.b.b.b.b.b.b.b.b.b.b.b.b.b.b.b.b.b.b.b.b.b.s.p.p b.Y 2 b.b.b.d.a.b.b.b.b.b.b.b.b.b.b.b.b.b.b.b.b.b.b.b.b.b.b.b.b.b.b.",
"b.b.b.b.b.b.b.b.b.b.b.b.b.b.b.b.b.b.b.b.b.b.b.b.b.b.b _ v @.-.b.b.b.b.b.b.b.b.b.b.b.b.b.b.b.b.b.b.b.b.b.b.b.b.b.b.b.b.b.",
"b.b.b.b.b.b.b.b.b.b.b.b.b.b.b.b.b.b.b.b.b.b.b.b.b.b.n S K %.y.:.X.^ b.b.b.b.b.b.b.b.b.b.b.b.b.b.b.b.b.b.b.b.b.b.b.b.b.b.",
"b.b.b.b.b.b.b.b.b.b.b.b.b.b.b.b.b.b.b.b.b.b.b.b.b.;.P m H { 1.o.>.=.V b.b.b.b.b.b.b.b.b.b.b.b.b.b.b.b.b.b.b.b.b.b.b.b.b.",
"b.b.b.b.b.b.b.b.b.b.b.b.b.b.b.b.b.b.b.b.b.b.b.b.b.J c a M [ &.B z G *.b.b.b.b.b.b.b.b.b.b.b.b.b.b.b.b.b.b.b.b.b.b.b.b.b.",
"b.b.b.b.b.b.b.b.b.b.b.b.b.b.b.b.b.b.b.b.b.b.b.b.b.# - u Q $.L 6 % s ` ) b.b.b.b.b.b.b.b.b.b.b.b.b.b.b.b.b.b.b.b.b.b.b.b.",
"b.b.b.b.b.b.b.b.b.b.b.b.b.b.b.b.b.b.b.b.b.b.b.b.b.& Y < k g 3 2 8 b.b.} #.b.b.b.b.b.b.b.b.b.b.b.b.b.b.b.b.b.b.b.b.b.b.b.",
"b.b.b.b.b.b.b.b.b.b.b.b.b.b.b.b.b.b.b.b.b.b.b.b.b.w = b.b.% : 2 5 b.b.W  .b.b.b.b.b.b.b.b.b.b.b.b.b.b.b.b.b.b.b.b.b.b.b.",
"b.b.b.b.b.b.b.b.b.b.b.b.b.b.b.b.b.b.b.b.b.b.b.b.b...x b.b.b.$ U * # b.b.C A r b.b.b.b.b.b.b.b.b.b.b.b.b.b.b.b.b.b.b.b.b.",
"b.b.b.b.b.b.b.b.b.b.b.b.b.b.b.b.b.b.b.b.b.b.y e F ( b.b.b.4 $ O o h ! b.D / b.b.b.b.b.b.b.b.b.b.b.b.b.b.b.b.b.b.b.b.b.b.",
"b.b.b.b.b.b.b.b.b.b.b.b.b.b.b.b.b.b.b.b.b.b.5 q b.b.b.2 Y   @ > ; R ,.6.7.b.b.b.b.b.b.b.b.b.b.b.b.b.b.b.b.b.b.b.b.b.b.b.",
"b.b.b.b.b.b.b.b.b.b.b.b.b.b.b.b.b.b.b.b.b.b.b.b.b.b.Z X . f b.b.q.0.f.v.x.b.b.b.b.b.b.b.b.b.b.b.b.b.b.b.b.b.b.b.b.b.b.b.",
"b.b.b.b.b.b.b.b.b.b.b.b.b.b.b.b.b.b.b.b.b.b.b.b.b.| Q i b.w.e.h.z.k.9.8.5.b.b.b.b.b.b.b.b.b.b.b.b.b.b.b.b.b.b.b.b.b.b.b.",
"b.b.b.b.b.b.b.b.b.b.b.b.b.b.b.b.b.b.b.b.b.b.b.b.b.b.t j l.j.c.g.4.3.T 7 ~ b.b.b.b.b.b.b.b.b.b.b.b.b.b.b.b.b.b.b.b.b.b.b.",
"b.b.b.b.b.b.b.b.b.b.b.b.b.b.b.b.b.b.b.b.b.b.b.b.b.b.0 + b.<.2.E b.b.b.I l b.b.b.b.b.b.b.b.b.b.b.b.b.b.b.b.b.b.b.b.b.b.b.",
"b.b.b.b.b.b.b.b.b.b.b.b.b.b.b.b.b.b.b.b.b.b.b.b.b.b.1 Y b.b.b.b.b.b.b.b.N b.b.b.b.b.b.b.b.b.b.b.b.b.b.b.b.b.b.b.b.b.b.b."
};
