/* XPM */
static char *result[] = {
/* columns rows colors chars-per-pixel */
"60 33 142 2 ",
"   c #3E1F22",
".  c #461E1F",
"X  c #4F1D1B",
"o  c #491F1E",
"O  c #4B1E1E",
"+  c #4A1F1E",
"@  c #4B1F1E",
"#  c #4F1D1C",
"$  c #4D1E1D",
"%  c #4E1E1D",
"&  c #4E1F1D",
"*  c #561C17",
"=  c #5B1E17",
"-  c #5D1C14",
";  c #5D1E17",
":  c #511F1B",
">  c #521E1B",
",  c #521F1B",
"<  c #571C19",
"1  c #541E19",
"2  c #561E19",
"3  c #541D1A",
"4  c #551E1A",
"5  c #541F1B",
"6  c #561E1A",
"7  c #571F1B",
"8  c #501E1C",
"9  c #501F1C",
"0  c #591E19",
"q  c #5A1E18",
"w  c #5B1E18",
"e  c #5D1F18",
"r  c #621E15",
"t  c #611E16",
"y  c #671E14",
"u  c #6A1E13",
"i  c #6A1F13",
"p  c #49201F",
"a  c #4B211F",
"s  c #4F201D",
"d  c #4D221E",
"f  c #5A2119",
"g  c #5F231A",
"h  c #5F2B19",
"j  c #59281D",
"k  c #652116",
"l  c #642217",
"z  c #672917",
"x  c #6D2917",
"c  c #602018",
"v  c #632518",
"b  c #662519",
"n  c #68271A",
"m  c #68291B",
"M  c #692A1A",
"N  c #6D2819",
"B  c #6F2D1A",
"V  c #6B2B1C",
"C  c #6D2C1C",
"Z  c #6F2D1F",
"A  c #702112",
"S  c #712213",
"D  c #752513",
"F  c #702314",
"G  c #762414",
"H  c #792714",
"J  c #752A17",
"K  c #763117",
"L  c #7E3114",
"P  c #723815",
"I  c #7C3318",
"U  c #7D361B",
"Y  c #431F20",
"T  c #421F21",
"R  c #431F21",
"E  c #441F20",
"W  c #451F20",
"Q  c #502420",
"!  c #7E3C33",
"~  c #812C13",
"^  c #842E15",
"/  c #833116",
"(  c #873416",
")  c #883116",
"_  c #893317",
"`  c #893B15",
"'  c #8A3418",
"]  c #883619",
"[  c #903717",
"{  c #983F17",
"}  c #9C3E18",
"|  c #984916",
" . c #9F4A17",
".. c #9C4F16",
"X. c #9D4E17",
"o. c #99421C",
"O. c #A24219",
"+. c #A54519",
"@. c #A8461A",
"#. c #A14918",
"$. c #A34B18",
"%. c #AF4E1A",
"&. c #B04E1A",
"*. c #B04D1C",
"=. c #AB5718",
"-. c #AA5F18",
";. c #B95A1B",
":. c #B26918",
">. c #B46818",
",. c #B46B18",
"<. c #A14C32",
"1. c #C86A1C",
"2. c #854C46",
"3. c #905952",
"4. c #925D57",
"5. c #9E716D",
"6. c #A16568",
"7. c #A3686A",
"8. c #A0706B",
"9. c #A97468",
"0. c #AA7378",
"q. c #AC747A",
"w. c #A67C7A",
"e. c #A87F7E",
"r. c #D89C1A",
"t. c #DFBB17",
"y. c #D3B218",
"u. c #DCC317",
"i. c #E2C916",
"p. c #E4CD16",
"a. c #E7D416",
"s. c #E8D716",
"d. c #AE8586",
"f. c #AF8889",
"g. c #B28187",
"h. c #B4878C",
"j. c #B79195",
"k. c #B89095",
"l. c #BA9599",
"z. c #BB9A9D",
"x. c #BFA5A8",
"c. c None",
/* pixels */
"c.c.c.c.c.c.c.c.c.c.c.c.c.c.c.c.c.c.c.c.c.c.c.c.c.c.c.c.c.c.c.c.c.c.c.c.c.c.c.c.c.c.c.c.c.c.c.c.c.c.c.c.c.c.c.c.c.c.c.c.",
"c.c.c.c.c.c.c.c.c.c.c.c.c.c.c.c.c.c.c.c.c.c.c.c.c.c.c.c.c.c.c.c.c.c.c.c.c.c.c.c.c.c.c.c.c.c.c.c.c.c.c.c.c.c.c.c.c.c.c.c.",
"c.c.c.c.c.c.c.c.c.c.c.c.c.c.c.c.c.c.c.c.c.c.c.c.c.c.c.c.c.c.c.c.c.c.c.c.c.c.c.c.c.c.c.c.c.c.c.c.c.c.c.c.c.c.c.c.c.c.c.c.",
"c.c.c.c.c.c.c.c.c.c.c.c.c.c.c.c.c.c.c.c.c.c.c.c.c.c.c.c.c.c.c.c.c.c.c.c.c.c.c.c.c.c.c.c.c.c.c.c.c.c.c.c.c.c.c.c.c.c.c.c.",
"c.c.c.c.c.c.c.c.c.c.c.c.c.c.c.c.c.c.c.c.c.c.c.c.c.c.c.c.c.c.c.c.c.c.c.c.c.c.c.c.c.c.c.c.c.c.c.c.c.c.c.c.c.c.c.c.c.c.c.c.",
"c.c.c.c.c.c.c.c.c.c.c.c.c.c.c.c.c.c.c.c.c.c.c.c.c.c.c.c.c.c.c.c.c.c.c.c.c.c.c.c.c.c.c.c.c.c.c.c.c.c.c.c.c.c.c.c.c.c.c.c.",
"c.c.c.c.c.c.c.c.c.c.c.c.c.c.c.c.c.c.c.c.c.c.c.c.c.c.c.c.c.c.c.c.c.c.c.c.c.c.c.c.c.c.c.c.c.c.c.c.c.c.c.c.c.c.c.c.c.c.c.c.",
"c.c.c.c.c.c.c.c.c.c.c.c.c.c.c.c.c.c.c.c.c.c.c.c.c.c.c.c.c.c.c.c.c.c.c.c.c.c.c.c.c.c.c.c.c.c.c.c.c.c.c.c.c.c.c.c.c.c.c.c.",
"c.c.c.c.c.c.c.c.c.c.c.c.c.c.c.c.c.c.c.c.c.c.c.c.c.c.c.c.c.c.c.c.c.c.c.c.c.c.c.c.c.c.c.c.c.c.c.c.c.c.c.c.c.c.c.c.c.c.c.c.",
"c.c.c.c.c.c.c.c.c.c.c.c.c.c.c.c.c.c.c.c.c.c.c.c.c.c.c.c.c.c.c.c.c.c.c.c.c.c.c.c.c.c.c.c.c.c.c.c.c.c.c.c.c.c.c.c.c.c.c.c.",
"c.c.c.c.c.c.c.c.c.c.c.c.c.c.c.c.c.c.c.c.c.c.c.c.c.c.c.c.c.c.c.c.c.c.c.c.c.c.c.c.c.c.c.c.c.c.c.c.c.c.c.c.c.c.c.c.c.c.c.c.",
"c.c.c.c.c.c.c.c.c.c.c.c.c.c.c.c.c.c.c.c.c.c.c.c.c.c.c.c.c.c.c.c.c.c.c.c.c.c.c.c.c.c.c.c.c.c.c.c.c.c.c.c.c.c.c.c.c.c.c.c.",
"c.c.c.c.c.c.c.c.c.c.c.c.c.c.c.c.c.c.c.c.c.c.c.c.c.c.c.c.c.c.c.c.c.c.c.c.c.c.c.c.c.c.c.c.c.c.c.c.c.c.c.c.c.c.c.c.c.c.c.c.",
"c.c.c.c.c.c.c.c.c.c.c.c.c.c.c.c.c.c.c.c.c.c.c.c.c.c.c.c.c.c.c.c.c.c.c.c.c.c.c.c.c.c.c.c.c.c.c.c.c.c.c.c.c.c.c.c.c.c.c.c.",
"c.c.c.c.c.c.c.c.c.c.c.c.c.c.c.c.c.c.c.c.c.c.c.w c.c.c.c.c.c.c.c.< 7 c.c.c.c.c.c.c.c.c.c.c.c.c.c.c.c.c.c.c.c.c.c.c.c.c.c.",
"c.c.c.c.c.c.c.c.c.c.c.c.c.c.c.c.c.c.c.c.c.c.c.$.c.c.c.c.c.c.c.c...-.c.c.c.c.c.c.c.c.c.c.c.c.c.c.c.c.c.c.c.c.c.c.c.c.c.c.",
"c.c.c.c.c.c.c.c.c.c.c.c.c.c.c.c.c.c.c.c.c.c.c.t.y.d c.Y c.c.c.c.i.p.c.c.c.c.c.c.c.c.c.c.c.c.c.c.c.c.c.c.c.c.c.c.c.c.c.c.",
"c.c.c.c.c.c.c.c.c.c.c.c.c.c.c.c.c.c.c.c.c.c.c.a.u.p c.a 2 c.c.c.s.c.c.c.c.c.c.c.c.c.c.c.c.c.c.c.c.c.c.c.c.c.c.c.c.c.c.c.",
"c.c.c.c.c.c.c.c.c.c.c.c.c.c.c.c.c.c.c.c.c.c.c.c.c.c.b ] N +.;.%.c.c.c.c.c.c.c.c.c.c.c.c.c.c.c.c.c.c.c.c.c.c.c.c.c.c.c.c.",
"c.c.c.c.c.c.c.c.c.c.c.c.c.c.c.c.c.c.c.c.c.c.c.c.c.c.M z I &.r.>.{ ` c.c.c.c.c.c.c.c.c.c.c.c.c.c.c.c.c.c.c.c.c.c.c.c.c.c.",
"c.c.c.c.c.c.c.c.c.c.c.c.c.c.c.c.c.c.c.c.c.c.c.c.c.=.U h P [ 1.#.:.,.G c.c.c.c.c.c.c.c.c.c.c.c.c.c.c.c.c.c.c.c.c.c.c.c.c.",
"c.c.c.c.c.c.c.c.c.c.c.c.c.c.c.c.c.c.c.c.c.c.c.c.c.n k f x O.*.C j B X. .c.c.c.c.c.c.c.c.c.c.c.c.c.c.c.c.c.c.c.c.c.c.c.c.",
"c.c.c.c.c.c.c.c.c.c.c.c.c.c.c.c.c.c.c.c.c.c.c.c.c.. w u _ o.V 2 > # K ( c.c.c.c.c.c.c.c.c.c.c.c.c.c.c.c.c.c.c.c.c.c.c.c.",
"c.c.c.c.c.c.c.c.c.c.c.c.c.c.c.c.c.c.c.c.c.c.c.c.c.% W , s @ $ 0 t c.c.' @.c.c.c.c.c.c.c.c.c.c.c.c.c.c.c.c.c.c.c.c.c.c.c.",
"c.c.c.c.c.c.c.c.c.c.c.c.c.c.c.c.c.c.c.c.c.c.c.c.c.v 8 c.c.: 9 , 0 c.c.c.} c.c.c.c.c.c.c.c.c.c.c.c.c.c.c.c.c.c.c.c.c.c.c.",
"c.c.c.c.c.c.c.c.c.c.c.c.c.c.c.c.c.c.c.c.c.c.c.S | L c.c.c.c.E E & O c.c.A H F ; c.c.c.c.c.c.c.c.c.c.c.c.c.c.c.c.c.c.c.c.",
"c.c.c.c.c.c.c.c.c.c.c.c.c.c.c.c.c.c.c.c.c.y q i D c.c.c.t 4 o + E Q / c.c.) c.c.c.c.c.c.c.c.c.c.c.c.c.c.c.c.c.c.c.c.c.c.",
"c.c.c.c.c.c.c.c.c.c.c.c.c.c.c.c.c.c.c.c.c.c.c.c.c.c.c.6 T   , = * Z <.7.d.c.c.c.c.c.c.c.c.c.c.c.c.c.c.c.c.c.c.c.c.c.c.c.",
"c.c.c.c.c.c.c.c.c.c.c.c.c.c.c.c.c.c.c.c.c.c.c.c.c.c.e R W X c.c.c.6.0.k.x.c.c.c.c.c.c.c.c.c.c.c.c.c.c.c.c.c.c.c.c.c.c.c.",
"c.c.c.c.c.c.c.c.c.c.c.c.c.c.c.c.c.c.c.c.c.c.c.c.c.} J 3 c.c.c.q.g.j.f.8.9.c.c.c.c.c.c.c.c.c.c.c.c.c.c.c.c.c.c.c.c.c.c.c.",
"c.c.c.c.c.c.c.c.c.c.c.c.c.c.c.c.c.c.c.c.c.c.c.c.c.^ l - c.h.l.z.e.5.2.c ~ c.c.c.c.c.c.c.c.c.c.c.c.c.c.c.c.c.c.c.c.c.c.c.",
"c.c.c.c.c.c.c.c.c.c.c.c.c.c.c.c.c.c.c.c.c.c.c.c.c.c.r 1 c.w.3.4.! c.c.T g c.c.c.c.c.c.c.c.c.c.c.c.c.c.c.c.c.c.c.c.c.c.c.",
"c.c.c.c.c.c.c.c.c.c.c.c.c.c.c.c.c.c.c.c.c.c.c.c.c.c.5 E c.c.c.c.c.c.c.c.m c.c.c.c.c.c.c.c.c.c.c.c.c.c.c.c.c.c.c.c.c.c.c."
};
