/* XPM */
static char *result[] = {
/* columns rows colors chars-per-pixel */
"60 33 142 2 ",
"   c #3E1F22",
".  c #411D1F",
"X  c #461E1F",
"o  c #471E1F",
"O  c #461F1F",
"+  c #4F1E1B",
"@  c #4B1E1D",
"#  c #481E1E",
"$  c #4B1F1E",
"%  c #4F1E1C",
"&  c #4F1F1C",
"*  c #4E1F1D",
"=  c #4C1F1E",
"-  c #5C1E17",
";  c #511E1B",
":  c #511F1B",
">  c #551D18",
",  c #541E1A",
"<  c #551F1A",
"1  c #541F1B",
"2  c #561E1A",
"3  c #501F1C",
"4  c #511F1C",
"5  c #581E19",
"6  c #5B1E18",
"7  c #5A1F18",
"8  c #5C1E18",
"9  c #631E15",
"0  c #611E16",
"q  c #611F17",
"w  c #641D14",
"e  c #641E15",
"r  c #641F15",
"t  c #671E14",
"y  c #691D13",
"u  c #631F18",
"i  c #4A211F",
"p  c #4D211E",
"a  c #57251A",
"s  c #53211C",
"d  c #53211E",
"f  c #54221D",
"g  c #51241F",
"h  c #5A201B",
"j  c #59221B",
"k  c #5F231A",
"l  c #5C2A1E",
"z  c #672116",
"x  c #6B2417",
"c  c #652519",
"v  c #662519",
"b  c #65271A",
"n  c #602A18",
"m  c #652A18",
"M  c #68291B",
"N  c #682A1C",
"B  c #712013",
"V  c #712113",
"C  c #732716",
"Z  c #782714",
"A  c #732917",
"S  c #702C17",
"D  c #792816",
"F  c #7D2B14",
"G  c #762F19",
"H  c #753715",
"J  c #783019",
"K  c #7E3318",
"L  c #7E331B",
"P  c #7D371C",
"I  c #411F21",
"U  c #431F20",
"Y  c #441E20",
"T  c #441F20",
"R  c #672922",
"E  c #713023",
"W  c #7F3E35",
"Q  c #822D15",
"!  c #832E16",
"~  c #803117",
"^  c #873014",
"/  c #823414",
"(  c #883116",
")  c #8A3715",
"_  c #8F3717",
"`  c #82341A",
"'  c #813818",
"]  c #963B18",
"[  c #973C18",
"{  c #983D19",
"}  c #9A3D18",
"|  c #9B3D18",
" . c #944416",
".. c #984117",
"X. c #9A4217",
"o. c #9A4617",
"O. c #A04118",
"+. c #A24219",
"@. c #AC4A1B",
"#. c #B24F1B",
"$. c #B64F1C",
"%. c #A65617",
"&. c #A55817",
"*. c #AD5619",
"=. c #AE5B18",
"-. c #AB6517",
";. c #BE7919",
":. c #9A462D",
">. c #85473E",
",. c #C6691C",
"<. c #884C44",
"1. c #925B55",
"2. c #94605A",
"3. c #A0604D",
"4. c #9F6767",
"5. c #9D6B67",
"6. c #9B6D67",
"7. c #9F726F",
"8. c #A76E72",
"9. c #A86D72",
"0. c #AC7479",
"q. c #AF787E",
"w. c #C68518",
"e. c #CB941A",
"r. c #D79C19",
"t. c #D9A619",
"y. c #DBB617",
"u. c #DDC917",
"i. c #E7D116",
"p. c #E7D316",
"a. c #E7D416",
"s. c #AE7D81",
"d. c #AD8787",
"f. c #B28287",
"g. c #B48D90",
"h. c #B59193",
"j. c #B89093",
"k. c #B99397",
"l. c #B89A9B",
"z. c #BC9D9F",
"x. c #BD9CA0",
"c. c None",
/* pixels */
"c.c.c.c.c.c.c.c.c.c.c.c.c.c.c.c.c.c.c.c.c.c.c.c.c.c.c.c.c.c.c.c.c.c.c.c.c.c.c.c.c.c.c.c.c.c.c.c.c.c.c.c.c.c.c.c.c.c.c.c.",
"c.c.c.c.c.c.c.c.c.c.c.c.c.c.c.c.c.c.c.c.c.c.c.c.c.c.c.c.c.c.c.c.c.c.c.c.c.c.c.c.c.c.c.c.c.c.c.c.c.c.c.c.c.c.c.c.c.c.c.c.",
"c.c.c.c.c.c.c.c.c.c.c.c.c.c.c.c.c.c.c.c.c.c.c.c.c.c.c.c.c.c.c.c.c.c.c.c.c.c.c.c.c.c.c.c.c.c.c.c.c.c.c.c.c.c.c.c.c.c.c.c.",
"c.c.c.c.c.c.c.c.c.c.c.c.c.c.c.c.c.c.c.c.c.c.c.c.c.c.c.c.c.c.c.c.c.c.c.c.c.c.c.c.c.c.c.c.c.c.c.c.c.c.c.c.c.c.c.c.c.c.c.c.",
"c.c.c.c.c.c.c.c.c.c.c.c.c.c.c.c.c.c.c.c.c.c.c.c.c.c.c.c.c.c.c.c.c.c.c.c.c.c.c.c.c.c.c.c.c.c.c.c.c.c.c.c.c.c.c.c.c.c.c.c.",
"c.c.c.c.c.c.c.c.c.c.c.c.c.c.c.c.c.c.c.c.c.c.c.c.c.c.c.c.c.c.c.c.c.c.c.c.c.c.c.c.c.c.c.c.c.c.c.c.c.c.c.c.c.c.c.c.c.c.c.c.",
"c.c.c.c.c.c.c.c.c.c.c.c.c.c.c.c.c.c.c.c.c.c.c.c.c.c.c.c.c.c.c.c.c.c.c.c.c.c.c.c.c.c.c.c.c.c.c.c.c.c.c.c.c.c.c.c.c.c.c.c.",
"c.c.c.c.c.c.c.c.c.c.c.c.c.c.c.c.c.c.c.c.c.c.c.c.c.c.c.c.c.c.c.c.c.c.c.c.c.c.c.c.c.c.c.c.c.c.c.c.c.c.c.c.c.c.c.c.c.c.c.c.",
"c.c.c.c.c.c.c.c.c.c.c.c.c.c.c.c.c.c.c.c.c.c.c.c.c.c.c.c.c.c.c.c.c.c.c.c.c.c.c.c.c.c.c.c.c.c.c.c.c.c.c.c.c.c.c.c.c.c.c.c.",
"c.c.c.c.c.c.c.c.c.c.c.c.c.c.c.c.c.c.c.c.c.c.c.c.c.c.c.c.c.c.c.c.c.c.c.c.c.c.c.c.c.c.c.c.c.c.c.c.c.c.c.c.c.c.c.c.c.c.c.c.",
"c.c.c.c.c.c.c.c.c.c.c.c.c.c.c.c.c.c.c.c.c.c.c.c.c.c.c.c.c.c.c.c.c.c.c.c.c.c.c.c.c.c.c.c.c.c.c.c.c.c.c.c.c.c.c.c.c.c.c.c.",
"c.c.c.c.c.c.c.c.c.c.c.c.c.c.c.c.c.c.c.c.c.c.c.c.c.c.c.c.c.c.c.c.c.c.c.c.c.c.c.c.c.c.c.c.c.c.c.c.c.c.c.c.c.c.c.c.c.c.c.c.",
"c.c.c.c.c.c.c.c.c.c.c.c.c.c.c.c.c.c.c.c.c.c.c.c.c.c.c.c.c.c.c.c.c.c.c.c.c.c.c.c.c.c.c.c.c.c.c.c.c.c.c.c.c.c.c.c.c.c.c.c.",
"c.c.c.c.c.c.c.c.c.c.c.c.c.c.c.c.c.c.c.c.c.c.c.c.c.c.c.c.c.c.c.c.c.c.c.c.c.c.c.c.c.c.c.c.c.c.c.c.c.c.c.c.c.c.c.c.c.c.c.c.",
"c.c.c.c.c.c.c.c.c.c.c.c.c.c.c.c.c.c.c.c.c.c.c.Y c.c.c.c.c.c.c.c.c.c.c.c.c.c.c.c.c.c.c.c.c.c.c.c.c.c.c.c.c.c.c.c.c.c.c.c.",
"c.c.c.c.c.c.c.c.c.c.c.c.c.c.c.c.c.c.c.c.c.c.c.A c.c.c.c., c.c.c...c.c.c.c.c.c.c.c.c.c.c.c.c.c.c.c.c.c.c.c.c.c.c.c.c.c.c.",
"c.c.c.c.c.c.c.c.c.c.c.c.c.c.c.c.c.c.c.c.c.c.c.w.e.p c.T c.c.c.c.t.y.c.c.c.c.c.c.c.c.c.c.c.c.c.c.c.c.c.c.c.c.c.c.c.c.c.c.",
"c.c.c.c.c.c.c.c.c.c.c.c.c.c.c.c.c.c.c.c.c.c.c.a.u.i c.T 2 c.c.c.p.i.c.c.c.c.c.c.c.c.c.c.c.c.c.c.c.c.c.c.c.c.c.c.c.c.c.c.",
"c.c.c.c.c.c.c.c.c.c.c.c.c.c.c.c.c.c.c.c.c.c.c.c.c.c.v ` c O.*.c.c.c.c.c.c.c.c.c.c.c.c.c.c.c.c.c.c.c.c.c.c.c.c.c.c.c.c.c.",
"c.c.c.c.c.c.c.c.c.c.c.c.c.c.c.c.c.c.c.c.c.c.c.c.c.c.b S K #.r.-.X./ c.c.c.c.c.c.c.c.c.c.c.c.c.c.c.c.c.c.c.c.c.c.c.c.c.c.",
"c.c.c.c.c.c.c.c.c.c.c.c.c.c.c.c.c.c.c.c.c.c.c.c.c.=.P n H [ ,.o.;.&.B c.c.c.c.c.c.c.c.c.c.c.c.c.c.c.c.c.c.c.c.c.c.c.c.c.",
"c.c.c.c.c.c.c.c.c.c.c.c.c.c.c.c.c.c.c.c.c.c.c.c.c.J x a m ] $.N l G %.c.c.c.c.c.c.c.c.c.c.c.c.c.c.c.c.c.c.c.c.c.c.c.c.c.",
"c.c.c.c.c.c.c.c.c.c.c.c.c.c.c.c.c.c.c.c.c.c.c.c.c.# - y ! @.L 6 % s ' _ c.c.c.c.c.c.c.c.c.c.c.c.c.c.c.c.c.c.c.c.c.c.c.c.",
"c.c.c.c.c.c.c.c.c.c.c.c.c.c.c.c.c.c.c.c.c.c.c.c.c.& T < j f 3 2 8 c.c.{ +.c.c.c.c.c.c.c.c.c.c.c.c.c.c.c.c.c.c.c.c.c.c.c.",
"c.c.c.c.c.c.c.c.c.c.c.c.c.c.c.c.c.c.c.c.c.c.c.c.c.q = c.c.% : 2 5 c.c.Q | c.c.c.c.c.c.c.c.c.c.c.c.c.c.c.c.c.c.c.c.c.c.c.",
"c.c.c.c.c.c.c.c.c.c.c.c.c.c.c.c.c.c.c.c.c.c.c.c.c. .z c.c.c.$ U * # c.c.V Z e c.c.c.c.c.c.c.c.c.c.c.c.c.c.c.c.c.c.c.c.c.",
"c.c.c.c.c.c.c.c.c.c.c.c.c.c.c.c.c.c.c.c.c.c.t w F ) c.c.c.4 $ O o g ~ c.D ( c.c.c.c.c.c.c.c.c.c.c.c.c.c.c.c.c.c.c.c.c.c.",
"c.c.c.c.c.c.c.c.c.c.c.c.c.c.c.c.c.c.c.c.c.c.5 0 c.c.c.2 T   @ > ; E :.4.5.c.c.c.c.c.c.c.c.c.c.c.c.c.c.c.c.c.c.c.c.c.c.c.",
"c.c.c.c.c.c.c.c.c.c.c.c.c.c.c.c.c.c.c.c.c.c.c.c.c.c.C X . d c.c.9.8.s.x.l.c.c.c.c.c.c.c.c.c.c.c.c.c.c.c.c.c.c.c.c.c.c.c.",
"c.c.c.c.c.c.c.c.c.c.c.c.c.c.c.c.c.c.c.c.c.c.c.c.c.} ! u c.0.q.f.k.h.7.6.3.c.c.c.c.c.c.c.c.c.c.c.c.c.c.c.c.c.c.c.c.c.c.c.",
"c.c.c.c.c.c.c.c.c.c.c.c.c.c.c.c.c.c.c.c.c.c.c.c.c.c.r h j.g.z.d.2.1.R 7 ^ c.c.c.c.c.c.c.c.c.c.c.c.c.c.c.c.c.c.c.c.c.c.c.",
"c.c.c.c.c.c.c.c.c.c.c.c.c.c.c.c.c.c.c.c.c.c.c.c.c.c.9 + c.>.<.W c.c.c.I k c.c.c.c.c.c.c.c.c.c.c.c.c.c.c.c.c.c.c.c.c.c.c.",
"c.c.c.c.c.c.c.c.c.c.c.c.c.c.c.c.c.c.c.c.c.c.c.c.c.c.1 T c.c.c.c.c.c.c.c.M c.c.c.c.c.c.c.c.c.c.c.c.c.c.c.c.c.c.c.c.c.c.c."
};
