/* XPM */
static char *result[] = {
/* columns rows colors chars-per-pixel */
"60 33 143 2 ",
"   c #3E1F22",
".  c #461E1F",
"X  c #4F1D1B",
"o  c #491F1E",
"O  c #4B1E1E",
"+  c #4A1F1E",
"@  c #4B1F1E",
"#  c #4F1D1C",
"$  c #4D1E1D",
"%  c #4E1E1D",
"&  c #4E1F1D",
"*  c #561C17",
"=  c #5B1E17",
"-  c #5D1C14",
";  c #5D1E17",
":  c #511F1B",
">  c #521E1B",
",  c #521F1B",
"<  c #541E19",
"1  c #561E19",
"2  c #541D1A",
"3  c #551E1A",
"4  c #541F1B",
"5  c #561E1A",
"6  c #501E1C",
"7  c #501F1C",
"8  c #591E19",
"9  c #5A1E18",
"0  c #5B1E18",
"q  c #5D1F18",
"w  c #621E15",
"e  c #611E16",
"r  c #671E14",
"t  c #6A1E13",
"y  c #6A1F13",
"u  c #49201F",
"i  c #4B211F",
"p  c #4F201D",
"a  c #4F241E",
"s  c #5A2119",
"d  c #5F231A",
"f  c #5F2B19",
"g  c #59281D",
"h  c #652116",
"j  c #642217",
"k  c #6D2216",
"l  c #672917",
"z  c #6D2917",
"x  c #602018",
"c  c #632518",
"v  c #662519",
"b  c #68271A",
"n  c #68291B",
"m  c #692A1A",
"M  c #6D2819",
"N  c #6F2D1A",
"B  c #6B2B1C",
"V  c #6D2C1C",
"C  c #6F2D1F",
"Z  c #702112",
"A  c #712213",
"S  c #752513",
"D  c #702314",
"F  c #762414",
"G  c #792714",
"H  c #752A17",
"J  c #712718",
"K  c #763117",
"L  c #7E3114",
"P  c #723815",
"I  c #7C3318",
"U  c #7D361B",
"Y  c #431F20",
"T  c #421F21",
"R  c #431F21",
"E  c #441F20",
"W  c #451F20",
"Q  c #452021",
"!  c #502420",
"~  c #7E3C33",
"^  c #812C13",
"/  c #842E15",
"(  c #833116",
")  c #873416",
"_  c #883116",
"`  c #893317",
"'  c #893B15",
"]  c #8A3418",
"[  c #883619",
"{  c #903717",
"}  c #983F17",
"|  c #9C3E18",
" . c #984916",
".. c #9F4A17",
"X. c #9D4E17",
"o. c #9D4318",
"O. c #99421C",
"+. c #A24219",
"@. c #A54519",
"#. c #A8461A",
"$. c #A14918",
"%. c #AF4E1A",
"&. c #B04E1A",
"*. c #B04D1C",
"=. c #AB5718",
"-. c #AB5C18",
";. c #B95A1B",
":. c #AF6018",
">. c #B26918",
",. c #B46818",
"<. c #B46B18",
"1. c #A14C32",
"2. c #C86A1C",
"3. c #854C46",
"4. c #905952",
"5. c #925D57",
"6. c #9E716D",
"7. c #A16568",
"8. c #A3686A",
"9. c #A0706B",
"0. c #A97468",
"q. c #AA7378",
"w. c #AC747A",
"e. c #A67C7A",
"r. c #A87F7E",
"t. c #C69019",
"y. c #D89C1A",
"u. c #DAA818",
"i. c #DCC517",
"p. c #E1C317",
"a. c #E6CE16",
"s. c #E7D316",
"d. c #E8D816",
"f. c #AE8586",
"g. c #AF8889",
"h. c #B28187",
"j. c #B4878C",
"k. c #B79195",
"l. c #B89095",
"z. c #BA9599",
"x. c #BB9A9D",
"c. c #BFA5A8",
"v. c None",
/* pixels */
"v.v.v.v.v.v.v.v.v.v.v.v.v.v.v.v.v.v.v.v.v.v.v.v.v.v.v.v.v.v.v.v.v.v.v.v.v.v.v.v.v.v.v.v.v.v.v.v.v.v.v.v.v.v.v.v.v.v.v.v.",
"v.v.v.v.v.v.v.v.v.v.v.v.v.v.v.v.v.v.v.v.v.v.v.v.v.v.v.v.v.v.v.v.v.v.v.v.v.v.v.v.v.v.v.v.v.v.v.v.v.v.v.v.v.v.v.v.v.v.v.v.",
"v.v.v.v.v.v.v.v.v.v.v.v.v.v.v.v.v.v.v.v.v.v.v.v.v.v.v.v.v.v.v.v.v.v.v.v.v.v.v.v.v.v.v.v.v.v.v.v.v.v.v.v.v.v.v.v.v.v.v.v.",
"v.v.v.v.v.v.v.v.v.v.v.v.v.v.v.v.v.v.v.v.v.v.v.v.v.v.v.v.v.v.v.v.v.v.v.v.v.v.v.v.v.v.v.v.v.v.v.v.v.v.v.v.v.v.v.v.v.v.v.v.",
"v.v.v.v.v.v.v.v.v.v.v.v.v.v.v.v.v.v.v.v.v.v.v.v.v.v.v.v.v.v.v.v.v.v.v.v.v.v.v.v.v.v.v.v.v.v.v.v.v.v.v.v.v.v.v.v.v.v.v.v.",
"v.v.v.v.v.v.v.v.v.v.v.v.v.v.v.v.v.v.v.v.v.v.v.v.v.v.v.v.v.v.v.v.v.v.v.v.v.v.v.v.v.v.v.v.v.v.v.v.v.v.v.v.v.v.v.v.v.v.v.v.",
"v.v.v.v.v.v.v.v.v.v.v.v.v.v.v.v.v.v.v.v.v.v.v.v.v.v.v.v.v.v.v.v.v.v.v.v.v.v.v.v.v.v.v.v.v.v.v.v.v.v.v.v.v.v.v.v.v.v.v.v.",
"v.v.v.v.v.v.v.v.v.v.v.v.v.v.v.v.v.v.v.v.v.v.v.v.v.v.v.v.v.v.v.v.v.v.v.v.v.v.v.v.v.v.v.v.v.v.v.v.v.v.v.v.v.v.v.v.v.v.v.v.",
"v.v.v.v.v.v.v.v.v.v.v.v.v.v.v.v.v.v.v.v.v.v.v.v.v.v.v.v.v.v.v.v.v.v.v.v.v.v.v.v.v.v.v.v.v.v.v.v.v.v.v.v.v.v.v.v.v.v.v.v.",
"v.v.v.v.v.v.v.v.v.v.v.v.v.v.v.v.v.v.v.v.v.v.v.v.v.v.v.v.v.v.v.v.v.v.v.v.v.v.v.v.v.v.v.v.v.v.v.v.v.v.v.v.v.v.v.v.v.v.v.v.",
"v.v.v.v.v.v.v.v.v.v.v.v.v.v.v.v.v.v.v.v.v.v.v.v.v.v.v.v.v.v.v.v.v.v.v.v.v.v.v.v.v.v.v.v.v.v.v.v.v.v.v.v.v.v.v.v.v.v.v.v.",
"v.v.v.v.v.v.v.v.v.v.v.v.v.v.v.v.v.v.v.v.v.v.v.v.v.v.v.v.v.v.v.v.v.v.v.v.v.v.v.v.v.v.v.v.v.v.v.v.v.v.v.v.v.v.v.v.v.v.v.v.",
"v.v.v.v.v.v.v.v.v.v.v.v.v.v.v.v.v.v.v.v.v.v.v.v.v.v.v.v.v.v.v.v.v.v.v.v.v.v.v.v.v.v.v.v.v.v.v.v.v.v.v.v.v.v.v.v.v.v.v.v.",
"v.v.v.v.v.v.v.v.v.v.v.v.v.v.v.v.v.v.v.v.v.v.v.v.v.v.v.v.v.v.v.v.v.Q v.v.v.v.v.v.v.v.v.v.v.v.v.v.v.v.v.v.v.v.v.v.v.v.v.v.",
"v.v.v.v.v.v.v.v.v.v.v.v.v.v.v.v.v.v.v.v.v.v.v.v.v.v.v.v.v.v.v.v.J k v.v.v.v.v.v.v.v.v.v.v.v.v.v.v.v.v.v.v.v.v.v.v.v.v.v.",
"v.v.v.v.v.v.v.v.v.v.v.v.v.v.v.v.v.v.v.v.v.v.v.o.v.v.v.v.v.v.v.v.-.:.v.v.v.v.v.v.v.v.v.v.v.v.v.v.v.v.v.v.v.v.v.v.v.v.v.v.",
"v.v.v.v.v.v.v.v.v.v.v.v.v.v.v.v.v.v.v.v.v.v.v.u.t.a v.Y v.v.v.v.p.a.v.v.v.v.v.v.v.v.v.v.v.v.v.v.v.v.v.v.v.v.v.v.v.v.v.v.",
"v.v.v.v.v.v.v.v.v.v.v.v.v.v.v.v.v.v.v.v.v.v.v.d.i.u v.i 1 v.v.v.s.v.v.v.v.v.v.v.v.v.v.v.v.v.v.v.v.v.v.v.v.v.v.v.v.v.v.v.",
"v.v.v.v.v.v.v.v.v.v.v.v.v.v.v.v.v.v.v.v.v.v.v.v.v.v.v [ M @.;.%.v.v.v.v.v.v.v.v.v.v.v.v.v.v.v.v.v.v.v.v.v.v.v.v.v.v.v.v.",
"v.v.v.v.v.v.v.v.v.v.v.v.v.v.v.v.v.v.v.v.v.v.v.v.v.v.m l I &.y.,.} ' v.v.v.v.v.v.v.v.v.v.v.v.v.v.v.v.v.v.v.v.v.v.v.v.v.v.",
"v.v.v.v.v.v.v.v.v.v.v.v.v.v.v.v.v.v.v.v.v.v.v.v.v.=.U f P { 2.$.>.<.F v.v.v.v.v.v.v.v.v.v.v.v.v.v.v.v.v.v.v.v.v.v.v.v.v.",
"v.v.v.v.v.v.v.v.v.v.v.v.v.v.v.v.v.v.v.v.v.v.v.v.v.b h s z +.*.V g N X...v.v.v.v.v.v.v.v.v.v.v.v.v.v.v.v.v.v.v.v.v.v.v.v.",
"v.v.v.v.v.v.v.v.v.v.v.v.v.v.v.v.v.v.v.v.v.v.v.v.v.. 0 t ` O.B 1 > # K ) v.v.v.v.v.v.v.v.v.v.v.v.v.v.v.v.v.v.v.v.v.v.v.v.",
"v.v.v.v.v.v.v.v.v.v.v.v.v.v.v.v.v.v.v.v.v.v.v.v.v.% W , p @ $ 8 e v.v.] #.v.v.v.v.v.v.v.v.v.v.v.v.v.v.v.v.v.v.v.v.v.v.v.",
"v.v.v.v.v.v.v.v.v.v.v.v.v.v.v.v.v.v.v.v.v.v.v.v.v.c 6 v.v.: 7 , 8 v.v.v.| v.v.v.v.v.v.v.v.v.v.v.v.v.v.v.v.v.v.v.v.v.v.v.",
"v.v.v.v.v.v.v.v.v.v.v.v.v.v.v.v.v.v.v.v.v.v.v.A  .L v.v.v.v.E E & O v.v.Z G D ; v.v.v.v.v.v.v.v.v.v.v.v.v.v.v.v.v.v.v.v.",
"v.v.v.v.v.v.v.v.v.v.v.v.v.v.v.v.v.v.v.v.v.r 9 y S v.v.v.e 3 o + E ! ( v.v._ v.v.v.v.v.v.v.v.v.v.v.v.v.v.v.v.v.v.v.v.v.v.",
"v.v.v.v.v.v.v.v.v.v.v.v.v.v.v.v.v.v.v.v.v.v.v.v.v.v.v.5 T   , = * C 1.8.f.v.v.v.v.v.v.v.v.v.v.v.v.v.v.v.v.v.v.v.v.v.v.v.",
"v.v.v.v.v.v.v.v.v.v.v.v.v.v.v.v.v.v.v.v.v.v.v.v.v.v.q R W X v.v.v.7.q.l.c.v.v.v.v.v.v.v.v.v.v.v.v.v.v.v.v.v.v.v.v.v.v.v.",
"v.v.v.v.v.v.v.v.v.v.v.v.v.v.v.v.v.v.v.v.v.v.v.v.v.| H 2 v.v.v.w.h.k.g.9.0.v.v.v.v.v.v.v.v.v.v.v.v.v.v.v.v.v.v.v.v.v.v.v.",
"v.v.v.v.v.v.v.v.v.v.v.v.v.v.v.v.v.v.v.v.v.v.v.v.v./ j - v.j.z.x.r.6.3.x ^ v.v.v.v.v.v.v.v.v.v.v.v.v.v.v.v.v.v.v.v.v.v.v.",
"v.v.v.v.v.v.v.v.v.v.v.v.v.v.v.v.v.v.v.v.v.v.v.v.v.v.w < v.e.4.5.~ v.v.T d v.v.v.v.v.v.v.v.v.v.v.v.v.v.v.v.v.v.v.v.v.v.v.",
"v.v.v.v.v.v.v.v.v.v.v.v.v.v.v.v.v.v.v.v.v.v.v.v.v.v.4 E v.v.v.v.v.v.v.v.n v.v.v.v.v.v.v.v.v.v.v.v.v.v.v.v.v.v.v.v.v.v.v."
};
