/* XPM */
static char *result[] = {
/* columns rows colors chars-per-pixel */
"60 33 144 2 ",
"   c #3F1F22",
".  c #461F1F",
"X  c #4C1D1B",
"o  c #481E1E",
"O  c #491E1E",
"+  c #4A1E1E",
"@  c #4A1F1E",
"#  c #4B1F1E",
"$  c #4C1E1D",
"%  c #4D1F1D",
"&  c #4F1E1C",
"*  c #4F1F1C",
"=  c #5D1E17",
"-  c #5F1E16",
";  c #5E1E17",
":  c #501E1B",
">  c #511E1B",
",  c #521F1B",
"<  c #571E19",
"1  c #551E1A",
"2  c #541F1B",
"3  c #561E1A",
"4  c #501E1C",
"5  c #501F1C",
"6  c #521F1C",
"7  c #581E19",
"8  c #591E19",
"9  c #5B1E18",
"0  c #5A1F19",
"q  c #611E16",
"w  c #621E16",
"e  c #651E14",
"r  c #681E13",
"t  c #6B1E12",
"y  c #6C1E12",
"u  c #6D1F12",
"i  c #691E15",
"p  c #4F251F",
"a  c #5B2019",
"s  c #5B221A",
"d  c #5F231A",
"f  c #5F2718",
"g  c #5A2A1B",
"h  c #5A281D",
"j  c #612017",
"k  c #6B2014",
"l  c #6E2216",
"z  c #6D2416",
"x  c #632218",
"c  c #61221A",
"v  c #652519",
"b  c #662418",
"n  c #68291B",
"m  c #6C2819",
"M  c #692B1E",
"N  c #692C1D",
"B  c #762413",
"V  c #7E2E14",
"C  c #702C19",
"Z  c #762E19",
"A  c #72281D",
"S  c #693317",
"D  c #783416",
"F  c #75321B",
"G  c #75341A",
"H  c #7A3019",
"J  c #7D351C",
"K  c #411E21",
"L  c #401F21",
"P  c #411F21",
"I  c #421F21",
"U  c #431F21",
"Y  c #401F22",
"T  c #441F20",
"R  c #4F2420",
"E  c #862F13",
"W  c #802B14",
"Q  c #833015",
"!  c #813217",
"~  c #803716",
"^  c #893116",
"/  c #8A3417",
"(  c #8C3717",
")  c #8B3D15",
"_  c #823318",
"`  c #863519",
"'  c #85341E",
"]  c #883418",
"[  c #8F3819",
"{  c #903617",
"}  c #903717",
"|  c #973B17",
" . c #9B3F1A",
".. c #954017",
"X. c #9A4017",
"o. c #994517",
"O. c #9B4617",
"+. c #9D4E17",
"@. c #A34619",
"#. c #AA471A",
"$. c #A64819",
"%. c #AB491A",
"&. c #A65517",
"*. c #AE5B1B",
"=. c #AD5D1A",
"-. c #B7501C",
";. c #B9591B",
":. c #B26518",
">. c #B26918",
",. c #B46B18",
"<. c #B86C19",
"1. c #BC7618",
"2. c #A45037",
"3. c #C3661B",
"4. c #894F47",
"5. c #895550",
"6. c #98635C",
"7. c #A26555",
"8. c #9B5E60",
"9. c #9D6E6A",
"0. c #A5696D",
"q. c #A0726F",
"w. c #A0736F",
"e. c #A07370",
"r. c #AB757A",
"t. c #D99C1A",
"y. c #D4AC19",
"u. c #DDB817",
"i. c #E2C816",
"p. c #E5CF16",
"a. c #E6CF17",
"s. c #E6D016",
"d. c #AF7A80",
"f. c #B07E83",
"g. c #B5888D",
"h. c #B18D8D",
"j. c #B68D91",
"k. c #B48F91",
"l. c #B79195",
"z. c #B89094",
"x. c #BB979C",
"c. c #BA999B",
"v. c #BDA3A5",
"b. c None",
/* pixels */
"b.b.b.b.b.b.b.b.b.b.b.b.b.b.b.b.b.b.b.b.b.b.b.b.b.b.b.b.b.b.b.b.b.b.b.b.b.b.b.b.b.b.b.b.b.b.b.b.b.b.b.b.b.b.b.b.b.b.b.b.",
"b.b.b.b.b.b.b.b.b.b.b.b.b.b.b.b.b.b.b.b.b.b.b.b.b.b.b.b.b.b.b.b.b.b.b.b.b.b.b.b.b.b.b.b.b.b.b.b.b.b.b.b.b.b.b.b.b.b.b.b.",
"b.b.b.b.b.b.b.b.b.b.b.b.b.b.b.b.b.b.b.b.b.b.b.b.b.b.b.b.b.b.b.b.b.b.b.b.b.b.b.b.b.b.b.b.b.b.b.b.b.b.b.b.b.b.b.b.b.b.b.b.",
"b.b.b.b.b.b.b.b.b.b.b.b.b.b.b.b.b.b.b.b.b.b.b.b.b.b.b.b.b.b.b.b.b.b.b.b.b.b.b.b.b.b.b.b.b.b.b.b.b.b.b.b.b.b.b.b.b.b.b.b.",
"b.b.b.b.b.b.b.b.b.b.b.b.b.b.b.b.b.b.b.b.b.b.b.b.b.b.b.b.b.b.b.b.b.b.b.b.b.b.b.b.b.b.b.b.b.b.b.b.b.b.b.b.b.b.b.b.b.b.b.b.",
"b.b.b.b.b.b.b.b.b.b.b.b.b.b.b.b.b.b.b.b.b.b.b.b.b.b.b.b.b.b.b.b.b.b.b.b.b.b.b.b.b.b.b.b.b.b.b.b.b.b.b.b.b.b.b.b.b.b.b.b.",
"b.b.b.b.b.b.b.b.b.b.b.b.b.b.b.b.b.b.b.b.b.b.b.b.b.b.b.b.b.b.b.b.b.b.b.b.b.b.b.b.b.b.b.b.b.b.b.b.b.b.b.b.b.b.b.b.b.b.b.b.",
"b.b.b.b.b.b.b.b.b.b.b.b.b.b.b.b.b.b.b.b.b.b.b.b.b.b.b.b.b.b.b.b.b.b.b.b.b.b.b.b.b.b.b.b.b.b.b.b.b.b.b.b.b.b.b.b.b.b.b.b.",
"b.b.b.b.b.b.b.b.b.b.b.b.b.b.b.b.b.b.b.b.b.b.b.b.b.b.b.b.b.b.b.b.b.b.b.b.b.b.b.b.b.b.b.b.b.b.b.b.b.b.b.b.b.b.b.b.b.b.b.b.",
"b.b.b.b.b.b.b.b.b.b.b.b.b.b.b.b.b.b.b.b.b.b.b.b.b.b.b.b.b.b.b.b.b.b.b.b.b.b.b.b.b.b.b.b.b.b.b.b.b.b.b.b.b.b.b.b.b.b.b.b.",
"b.b.b.b.b.b.b.b.b.b.b.b.b.b.b.b.b.b.b.b.b.b.b.b.b.b.b.b.b.b.b.b.b.b.b.b.b.b.b.b.b.b.b.b.b.b.b.b.b.b.b.b.b.b.b.b.b.b.b.b.",
"b.b.b.b.b.b.b.b.b.b.b.b.b.b.b.b.b.b.b.b.b.b.b.b.b.b.b.b.b.b.b.b.b.b.b.b.b.b.b.b.b.b.b.b.b.b.b.b.b.b.b.b.b.b.b.b.b.b.b.b.",
"b.b.b.b.b.b.b.b.b.b.b.b.b.b.b.b.b.b.b.b.b.b.b.b.b.b.b.b.b.b.b.b.b.b.b.b.b.b.b.b.b.b.b.b.b.b.b.b.b.b.b.b.b.b.b.b.b.b.b.b.",
"b.b.b.b.b.b.b.b.b.b.b.b.b.b.b.b.b.b.b.b.b.b.b.b.b.b.b.b.b.b.b.b.b.b.b.b.b.b.b.b.b.b.b.b.b.b.b.b.b.b.b.b.b.b.b.b.b.b.b.b.",
"b.b.b.b.b.b.b.b.b.b.b.b.b.b.b.b.b.b.b.b.b.b.b.l b.b.b.b.< b.b.b.i b.b.b.b.b.b.b.b.b.b.b.b.b.b.b.b.b.b.b.b.b.b.b.b.b.b.b.",
"b.b.b.b.b.b.b.b.b.b.b.b.b.b.b.b.b.b.b.b.b.b.b.=.*.6 b.U b.b.b.b.:.1.b.b.b.b.b.b.b.b.b.b.b.b.b.b.b.b.b.b.b.b.b.b.b.b.b.b.",
"b.b.b.b.b.b.b.b.b.b.b.b.b.b.b.b.b.b.b.b.b.b.b.u.y.p b.K b.b.b.b.i.s.b.b.b.b.b.b.b.b.b.b.b.b.b.b.b.b.b.b.b.b.b.b.b.b.b.b.",
"b.b.b.b.b.b.b.b.b.b.b.b.b.b.b.b.b.b.b.b.b.b.b.p.b.o x N a b.b.b.a.b.b.b.b.b.b.b.b.b.b.b.b.b.b.b.b.b.b.b.b.b.b.b.b.b.b.b.",
"b.b.b.b.b.b.b.b.b.b.b.b.b.b.b.b.b.b.b.b.b.b.b.b.b.b.v _ H %.;.@.b.b.b.b.b.b.b.b.b.b.b.b.b.b.b.b.b.b.b.b.b.b.b.b.b.b.b.b.",
"b.b.b.b.b.b.b.b.b.b.b.b.b.b.b.b.b.b.b.b.b.b.b.b.b.&.F f D $.t.<.X.) b.b.b.b.b.b.b.b.b.b.b.b.b.b.b.b.b.b.b.b.b.b.b.b.b.b.",
"b.b.b.b.b.b.b.b.b.b.b.b.b.b.b.b.b.b.b.b.b.b.b.b.b.o.Z g S / 3...>.,.B b.b.b.b.b.b.b.b.b.b.b.b.b.b.b.b.b.b.b.b.b.b.b.b.b.",
"b.b.b.b.b.b.b.b.b.b.b.b.b.b.b.b.b.b.b.b.b.b.b.b.b.0 r q ] -. .j h C +.O.b.b.b.b.b.b.b.b.b.b.b.b.b.b.b.b.b.b.b.b.b.b.b.b.",
"b.b.b.b.b.b.b.b.b.b.b.b.b.b.b.b.b.b.b.b.b.b.b.b.b.4 8 k ` J s - & O G ( ^ b.b.b.b.b.b.b.b.b.b.b.b.b.b.b.b.b.b.b.b.b.b.b.",
"b.b.b.b.b.b.b.b.b.b.b.b.b.b.b.b.b.b.b.b.b.b.b.b.b.< . * + O > 9 b.b.b.[ #.b.b.b.b.b.b.b.b.b.b.b.b.b.b.b.b.b.b.b.b.b.b.b.",
"b.b.b.b.b.b.b.b.b.b.b.b.b.b.b.b.b.b.b.b.b.b.b.b.b.~ 8 b.b., * # 2 b.b.b.{ b.b.b.b.b.b.b.b.b.b.b.b.b.b.b.b.b.b.b.b.b.b.b.",
"b.b.b.b.b.b.b.b.b.b.b.b.b.b.b.b.b.b.b.b.b.b.e u Q V b.b.b.1   L 5 $ b.b.b.W z b.b.b.b.b.b.b.b.b.b.b.b.b.b.b.b.b.b.b.b.b.",
"b.b.b.b.b.b.b.b.b.b.b.b.b.b.b.b.b.b.b.b.b.w 7 t y b.b.b.3 % # @ T R ! b.b.' b.b.b.b.b.b.b.b.b.b.b.b.b.b.b.b.b.b.b.b.b.b.",
"b.b.b.b.b.b.b.b.b.b.b.b.b.b.b.b.b.b.b.b.b.b.b.b.b.b.b.7   Y 8 ; X M 2.0.l.b.b.b.b.b.b.b.b.b.b.b.b.b.b.b.b.b.b.b.b.b.b.b.",
"b.b.b.b.b.b.b.b.b.b.b.b.b.b.b.b.b.b.b.b.b.b.b.b.b.b.7 I U b.b.b.b.8.r.j.v.w.b.b.b.b.b.b.b.b.b.b.b.b.b.b.b.b.b.b.b.b.b.b.",
"b.b.b.b.b.b.b.b.b.b.b.b.b.b.b.b.b.b.b.b.b.b.b.b.b.| m : b.b.b.b.d.z.h.6.7.b.b.b.b.b.b.b.b.b.b.b.b.b.b.b.b.b.b.b.b.b.b.b.",
"b.b.b.b.b.b.b.b.b.b.b.b.b.b.b.b.b.b.b.b.b.b.b.b.b.} b b.b.f.g.x.k.e.5.c E b.b.b.b.b.b.b.b.b.b.b.b.b.b.b.b.b.b.b.b.b.b.b.",
"b.b.b.b.b.b.b.b.b.b.b.b.b.b.b.b.b.b.b.b.b.b.b.b.b.b.= > b.c.q.9.4.A b.P d b.b.b.b.b.b.b.b.b.b.b.b.b.b.b.b.b.b.b.b.b.b.b.",
"b.b.b.b.b.b.b.b.b.b.b.b.b.b.b.b.b.b.b.b.b.b.b.b.b.b.2 T b.b.b.b.b.b.b.b.n b.b.b.b.b.b.b.b.b.b.b.b.b.b.b.b.b.b.b.b.b.b.b."
};
